<svg width="163" height="56" viewBox="0 0 163 56" fill="none" xmlns="http://www.w3.org/2000/svg">
<g clip-path="url(#clip0_440_12)">
<path d="M34.0973 52V4C34.0973 2.93913 34.5169 1.92172 35.2641 1.17158C36.0111 0.42143 37.0243 9.2225e-08 38.0808 0C39.1373 -9.22075e-08 40.1506 0.42143 40.8977 1.17157C41.6447 1.92172 42.0645 2.93913 42.0645 4V52C42.0645 53.0609 41.6447 54.0783 40.8977 54.8284C40.1506 55.5786 39.1373 56 38.0808 56C37.0243 56 36.0111 55.5786 35.2641 54.8284C34.5169 54.0783 34.0973 53.0609 34.0973 52ZM5.30556 35.0999L10.1955 33.5067V38.6666C10.1955 39.7275 10.6152 40.7449 11.3623 41.4951C12.1093 42.2452 13.1226 42.6668 14.1791 42.6668C15.2356 42.6668 16.2489 42.2452 16.996 41.4951C17.743 40.7449 18.1628 39.7275 18.1628 38.6666V33.5067L23.0526 35.0999C23.5539 35.277 24.0853 35.3516 24.6155 35.3194C25.1458 35.287 25.6643 35.1486 26.1405 34.9122C26.6167 34.6757 27.041 34.3459 27.3884 33.9423C27.7359 33.5388 27.9994 33.0694 28.1634 32.5621C28.3275 32.0546 28.3888 31.5194 28.3439 30.988C28.2989 30.4563 28.1485 29.9392 27.9014 29.4669C27.6544 28.9945 27.3158 28.5766 26.9055 28.2378C26.4954 27.8989 26.0216 27.6458 25.5125 27.4934L20.626 25.8967L23.6469 21.7233C24.2681 20.8649 24.5241 19.7939 24.3589 18.7458C24.1936 17.6979 23.6205 16.7587 22.7655 16.135C21.9105 15.5113 20.844 15.2542 19.8003 15.4201C18.7566 15.5861 17.8212 16.1616 17.2 17.02L14.1791 21.1934L11.1582 17.02C10.537 16.1616 9.60172 15.5861 8.55799 15.4201C7.51426 15.2542 6.44761 15.5113 5.5927 16.135C4.73781 16.7587 4.16467 17.6979 3.99939 18.7458C3.83409 19.7939 4.0902 20.8649 4.71133 21.7233L7.73226 25.8967L2.84566 27.4934C2.33653 27.6458 1.8629 27.8989 1.45263 28.2378C1.04236 28.5766 0.703762 28.9947 0.45675 29.4669C0.20974 29.9392 0.0593088 30.4563 0.0143132 30.988C-0.0306825 31.5194 0.0306651 32.0546 0.194746 32.5621C0.358826 33.0694 0.622327 33.5388 0.969734 33.9423C1.31714 34.3459 1.74144 34.6757 2.21766 34.9122C2.69388 35.1486 3.21241 35.287 3.74271 35.3194C4.27302 35.3516 4.8044 35.277 5.30556 35.0999Z" fill="#D71340"/>
<path d="M57.2218 36.974C55.6514 36.974 54.3521 36.8807 53.3238 36.694C52.3143 36.5073 51.5198 36.1993 50.9402 35.77C50.3605 35.322 49.9399 34.7247 49.6782 33.978C49.4165 33.2127 49.2483 32.27 49.1734 31.15C49.0986 30.03 49.0613 28.686 49.0613 27.118C49.0613 25.55 49.0986 24.206 49.1734 23.086C49.2483 21.966 49.4165 21.0327 49.6782 20.286C49.9399 19.5207 50.3605 18.9233 50.9402 18.494C51.5198 18.046 52.3143 17.7287 53.3238 17.542C54.3521 17.3553 55.6514 17.262 57.2218 17.262C58.7922 17.262 60.0822 17.3553 61.0917 17.542C62.12 17.7287 62.9238 18.046 63.5034 18.494C64.083 18.9233 64.5037 19.5207 64.7654 20.286C65.0458 21.0327 65.2233 21.966 65.2982 23.086C65.373 24.206 65.4104 25.55 65.4104 27.118C65.4104 28.686 65.373 30.03 65.2982 31.15C65.2233 32.27 65.0458 33.2127 64.7654 33.978C64.5037 34.7247 64.083 35.322 63.5034 35.77C62.9238 36.1993 62.12 36.5073 61.0917 36.694C60.0822 36.8807 58.7922 36.974 57.2218 36.974ZM57.2218 33.726C58.0443 33.726 58.7081 33.698 59.2128 33.642C59.7364 33.586 60.1476 33.4553 60.4467 33.25C60.7459 33.0447 60.9608 32.7087 61.0917 32.242C61.2412 31.7753 61.3348 31.1313 61.3722 30.31C61.4095 29.4887 61.4282 28.4247 61.4282 27.118C61.4282 25.8113 61.4095 24.7473 61.3722 23.926C61.3348 23.1047 61.2412 22.4607 61.0917 21.994C60.9608 21.5273 60.7459 21.1913 60.4467 20.986C60.1476 20.7807 59.7364 20.65 59.2128 20.594C58.7081 20.538 58.0443 20.51 57.2218 20.51C56.4178 20.51 55.7543 20.538 55.2307 20.594C54.726 20.65 54.3241 20.7807 54.0249 20.986C53.7257 21.1913 53.5014 21.5273 53.3519 21.994C53.2209 22.4607 53.1368 23.1047 53.0995 23.926C53.0621 24.7473 53.0434 25.8113 53.0434 27.118C53.0434 28.4247 53.0621 29.4887 53.0995 30.31C53.1368 31.1313 53.2209 31.7753 53.3519 32.242C53.5014 32.7087 53.7257 33.0447 54.0249 33.25C54.3241 33.4553 54.726 33.586 55.2307 33.642C55.7543 33.698 56.4178 33.726 57.2218 33.726ZM69.141 36.75V22.47H72.6183L72.7305 24.262H72.9548C73.2165 23.7953 73.5344 23.4127 73.9083 23.114C74.3009 22.8153 74.7776 22.6007 75.3385 22.47C75.9181 22.3207 76.5723 22.246 77.3015 22.246C78.2737 22.246 79.0494 22.3673 79.629 22.61C80.2272 22.8527 80.6854 23.2073 81.0031 23.674C81.3209 24.1407 81.5267 24.7193 81.6201 25.41C81.7323 26.1007 81.7883 26.9033 81.7883 27.818V36.75H78.0867V29.19C78.0867 28.3313 78.0586 27.65 78.0025 27.146C77.9465 26.642 77.8343 26.2687 77.666 26.026C77.4978 25.7833 77.2454 25.634 76.9089 25.578C76.5723 25.5033 76.1237 25.466 75.5628 25.466C74.9646 25.466 74.4784 25.5407 74.1046 25.69C73.7493 25.8207 73.4783 26.0447 73.2913 26.362C73.1231 26.6607 73.0016 27.062 72.9268 27.566C72.8707 28.0513 72.8426 28.6487 72.8426 29.358V36.75H69.141ZM92.1299 36.974C90.8585 36.974 89.8023 36.89 88.9611 36.722C88.1198 36.554 87.4467 36.2927 86.942 35.938C86.4558 35.5647 86.0819 35.098 85.8202 34.538C85.5771 33.9593 85.4182 33.2687 85.3435 32.466C85.2874 31.6447 85.2594 30.702 85.2594 29.638C85.2594 28.3687 85.3247 27.2673 85.4557 26.334C85.5864 25.4007 85.8576 24.6353 86.2689 24.038C86.6989 23.422 87.3531 22.974 88.2319 22.694C89.1293 22.3953 90.3164 22.246 91.7934 22.246C92.9898 22.246 93.962 22.3393 94.7099 22.526C95.4576 22.7127 96.0465 22.9927 96.4766 23.366C96.9253 23.7393 97.243 24.2247 97.43 24.822C97.6356 25.4007 97.7666 26.0913 97.8226 26.894C97.8787 27.6967 97.9068 28.6113 97.9068 29.638V30.73H88.9611C88.9611 31.4393 88.9891 32.018 89.0452 32.466C89.1198 32.8953 89.2788 33.222 89.5219 33.446C89.7836 33.67 90.1855 33.8193 90.7278 33.894C91.2886 33.9687 92.0458 34.006 92.9992 34.006C93.3918 34.006 93.8311 33.9967 94.3173 33.978C94.822 33.9593 95.3361 33.9313 95.8596 33.894C96.4017 33.8567 96.8972 33.8193 97.3459 33.782V36.526C96.9346 36.6193 96.4298 36.694 95.8316 36.75C95.252 36.8247 94.635 36.8807 93.9807 36.918C93.345 36.9553 92.7281 36.974 92.1299 36.974ZM94.3733 28.882V28.434C94.3733 27.706 94.3266 27.1273 94.2331 26.698C94.1583 26.25 94.0181 25.914 93.8125 25.69C93.6255 25.466 93.3638 25.326 93.0273 25.27C92.6908 25.1953 92.2607 25.158 91.7373 25.158C91.1204 25.158 90.6342 25.2047 90.2791 25.298C89.9238 25.3727 89.6527 25.5313 89.4658 25.774C89.2788 25.998 89.1479 26.334 89.0732 26.782C88.9984 27.2113 88.9611 27.762 88.9611 28.434H94.8781L94.3733 28.882ZM101.682 36.75V17.486H110.628C111.825 17.486 112.797 17.6353 113.545 17.934C114.311 18.2327 114.9 18.662 115.311 19.222C115.723 19.7633 116.003 20.426 116.153 21.21C116.321 21.994 116.405 22.8807 116.405 23.87C116.405 24.7847 116.33 25.634 116.181 26.418C116.05 27.1833 115.779 27.8553 115.367 28.434C114.956 29.0127 114.358 29.4607 113.573 29.778C112.806 30.0953 111.787 30.254 110.516 30.254H105.665V36.75H101.682ZM105.665 27.006H108.946C109.75 27.006 110.385 26.9687 110.852 26.894C111.32 26.8007 111.666 26.642 111.89 26.418C112.114 26.194 112.255 25.8767 112.311 25.466C112.386 25.0553 112.423 24.5233 112.423 23.87C112.423 23.2167 112.386 22.6847 112.311 22.274C112.255 21.8633 112.114 21.546 111.89 21.322C111.684 21.0793 111.357 20.9207 110.909 20.846C110.46 20.7527 109.843 20.706 109.058 20.706H105.665V27.006ZM123.036 36.974C122.12 36.974 121.344 36.8433 120.709 36.582C120.073 36.302 119.587 35.854 119.25 35.238C118.933 34.6033 118.774 33.7727 118.774 32.746C118.774 31.6447 118.905 30.7767 119.166 30.142C119.428 29.4887 119.886 29.022 120.54 28.742C121.195 28.4433 122.101 28.294 123.26 28.294C123.447 28.294 123.709 28.3033 124.046 28.322C124.382 28.322 124.765 28.3313 125.195 28.35C125.625 28.35 126.055 28.3593 126.485 28.378C126.915 28.378 127.308 28.3873 127.663 28.406V27.846C127.663 27.23 127.616 26.7447 127.523 26.39C127.43 26.0353 127.252 25.774 126.99 25.606C126.729 25.438 126.345 25.3353 125.84 25.298C125.336 25.2607 124.681 25.242 123.877 25.242C123.466 25.242 122.989 25.2513 122.447 25.27C121.905 25.2887 121.382 25.3167 120.877 25.354C120.372 25.3913 119.97 25.4287 119.671 25.466V22.666C120.475 22.5353 121.344 22.4327 122.279 22.358C123.214 22.2833 124.158 22.246 125.111 22.246C126.233 22.246 127.168 22.3207 127.916 22.47C128.682 22.6007 129.29 22.8153 129.738 23.114C130.206 23.4127 130.552 23.7953 130.776 24.262C131.019 24.71 131.178 25.2513 131.253 25.886C131.328 26.502 131.365 27.2113 131.365 28.014V36.75H127.916L127.803 35.014H127.579C127.261 35.5927 126.841 36.022 126.317 36.302C125.812 36.582 125.27 36.7593 124.691 36.834C124.13 36.9273 123.578 36.974 123.036 36.974ZM124.803 34.118C125.214 34.118 125.569 34.09 125.868 34.034C126.186 33.978 126.457 33.8847 126.682 33.754C126.925 33.6047 127.112 33.418 127.243 33.194C127.373 32.9513 127.476 32.6527 127.551 32.298C127.626 31.9433 127.663 31.514 127.663 31.01V30.59H124.27C123.746 30.59 123.345 30.6273 123.064 30.702C122.784 30.7767 122.597 30.9447 122.503 31.206C122.41 31.4673 122.363 31.8593 122.363 32.382C122.363 32.8673 122.419 33.2407 122.531 33.502C122.644 33.7447 122.877 33.9127 123.232 34.006C123.588 34.0807 124.111 34.118 124.803 34.118ZM140.631 36.974C140.052 36.974 139.425 36.9553 138.752 36.918C138.098 36.8807 137.453 36.834 136.817 36.778C136.182 36.722 135.602 36.6567 135.079 36.582V33.782C135.359 33.8007 135.686 33.8287 136.06 33.866C136.453 33.8847 136.873 33.9033 137.322 33.922C137.771 33.9407 138.21 33.9593 138.64 33.978C139.07 33.9967 139.472 34.006 139.846 34.006C140.706 34.006 141.323 33.9687 141.697 33.894C142.089 33.8007 142.342 33.6513 142.454 33.446C142.566 33.222 142.622 32.9327 142.622 32.578C142.622 32.2047 142.585 31.934 142.51 31.766C142.435 31.5793 142.295 31.458 142.089 31.402C141.884 31.346 141.547 31.29 141.08 31.234L137.743 30.814C136.864 30.702 136.2 30.4687 135.752 30.114C135.322 29.7593 135.023 29.2833 134.854 28.686C134.705 28.0887 134.63 27.3793 134.63 26.558C134.63 25.5873 134.77 24.822 135.051 24.262C135.35 23.6833 135.752 23.254 136.256 22.974C136.78 22.6753 137.397 22.4793 138.107 22.386C138.836 22.2927 139.622 22.246 140.463 22.246C141.024 22.246 141.603 22.2647 142.202 22.302C142.8 22.3393 143.37 22.3953 143.912 22.47C144.473 22.526 144.94 22.6007 145.314 22.694V25.466C144.884 25.41 144.408 25.3727 143.884 25.354C143.361 25.3167 142.847 25.2887 142.342 25.27C141.837 25.2327 141.388 25.214 140.996 25.214C140.285 25.214 139.715 25.242 139.285 25.298C138.874 25.3353 138.584 25.4473 138.416 25.634C138.248 25.8207 138.163 26.1287 138.163 26.558C138.163 26.894 138.191 27.1553 138.248 27.342C138.304 27.51 138.425 27.6313 138.612 27.706C138.799 27.762 139.098 27.818 139.509 27.874L143.127 28.322C143.781 28.3967 144.333 28.546 144.782 28.77C145.23 28.994 145.557 29.386 145.763 29.946C145.987 30.506 146.1 31.3553 146.1 32.494C146.1 33.4833 145.978 34.2767 145.735 34.874C145.492 35.4527 145.118 35.9007 144.613 36.218C144.127 36.5167 143.548 36.7127 142.875 36.806C142.22 36.918 141.472 36.974 140.631 36.974ZM154.625 36.974C154.046 36.974 153.419 36.9553 152.746 36.918C152.092 36.8807 151.447 36.834 150.811 36.778C150.176 36.722 149.596 36.6567 149.073 36.582V33.782C149.353 33.8007 149.68 33.8287 150.054 33.866C150.447 33.8847 150.868 33.9033 151.316 33.922C151.765 33.9407 152.204 33.9593 152.634 33.978C153.064 33.9967 153.466 34.006 153.84 34.006C154.7 34.006 155.317 33.9687 155.691 33.894C156.084 33.8007 156.336 33.6513 156.448 33.446C156.56 33.222 156.616 32.9327 156.616 32.578C156.616 32.2047 156.579 31.934 156.504 31.766C156.429 31.5793 156.289 31.458 156.084 31.402C155.878 31.346 155.541 31.29 155.074 31.234L151.737 30.814C150.858 30.702 150.195 30.4687 149.746 30.114C149.316 29.7593 149.017 29.2833 148.848 28.686C148.699 28.0887 148.624 27.3793 148.624 26.558C148.624 25.5873 148.764 24.822 149.045 24.262C149.344 23.6833 149.746 23.254 150.251 22.974C150.774 22.6753 151.391 22.4793 152.101 22.386C152.831 22.2927 153.616 22.246 154.457 22.246C155.018 22.246 155.597 22.2647 156.196 22.302C156.794 22.3393 157.364 22.3953 157.906 22.47C158.467 22.526 158.934 22.6007 159.309 22.694V25.466C158.878 25.41 158.402 25.3727 157.878 25.354C157.355 25.3167 156.841 25.2887 156.336 25.27C155.831 25.2327 155.382 25.214 154.99 25.214C154.279 25.214 153.709 25.242 153.279 25.298C152.868 25.3353 152.578 25.4473 152.41 25.634C152.242 25.8207 152.158 26.1287 152.158 26.558C152.158 26.894 152.186 27.1553 152.242 27.342C152.298 27.51 152.419 27.6313 152.606 27.706C152.793 27.762 153.092 27.818 153.504 27.874L157.121 28.322C157.775 28.3967 158.327 28.546 158.776 28.77C159.224 28.994 159.551 29.386 159.757 29.946C159.982 30.506 160.094 31.3553 160.094 32.494C160.094 33.4833 159.972 34.2767 159.729 34.874C159.486 35.4527 159.112 35.9007 158.607 36.218C158.121 36.5167 157.542 36.7127 156.869 36.806C156.214 36.918 155.467 36.974 154.625 36.974Z" fill="#F5F5F5"/>
</g>
<defs>
<clipPath id="clip0_440_12">
<rect width="163" height="56" fill="white"/>
</clipPath>
</defs>
</svg>
